<svg width="558" height="558" viewBox="-32.79993408203126 -39.34659545898438 607.5993188476563 607.5993188476563" fill="none" xmlns="http://www.w3.org/2000/svg">
<path fill-rule="evenodd" clip-rule="evenodd" d="M336.009 204.345C439.271 148.982 520.76 172.009 515.783 204.356L497.191 327.203L492.578 357.995H388.435L423.615 292.678H317.321L236.878 357.995H91.9375L336.009 204.345ZM419.696 209.628L367.163 252.244H445.303L467.995 209.941L467.974 209.944C474.817 197.502 435.627 196.258 419.765 209.633L419.696 209.628Z" fill="white"/>
<path d="M314.326 217.965L336.01 204.346L308.447 217.965H314.326Z" fill="#E00000"/>
<path d="M515.786 204.346L513.667 218.342H515.786V204.346Z" fill="#E00000"/>
<path d="M508.49 252.556H515.786V233.894H511.314L508.49 252.556Z" fill="#E00000"/>
<path d="M505.195 274.328H515.786V299.21H501.429L505.195 274.328Z" fill="#E00000"/>
<path d="M515.786 357.995H492.579L497.192 327.203H515.786V357.995Z" fill="#E00000"/>
<path d="M239.696 252.244H260.373L290.211 233.502H277.624L239.696 252.244Z" fill="#E00000"/>
<path d="M186.219 298.821H145.436L195.201 274.231H225.369L186.219 298.821Z" fill="#E00000"/>
<path d="M26 357.996H92.1936L141.393 326.947H88.5173L26 357.996Z" fill="#E00000"/>
</svg>
