<svg width="1731" height="390" viewBox="0 0 1731 390" fill="none" xmlns="http://www.w3.org/2000/svg">
<g clip-path="url(#clip0_3_22)">
<path fill-rule="evenodd" clip-rule="evenodd" d="M912.341 163.606C898.542 163.492 887.27 174.578 887.155 188.377L886.999 220.999H1008.05C1021.85 221.113 1033.12 210.295 1033.24 196.497L1033.3 189.631C1033.41 175.816 1022.3 163.721 1008.48 163.606H912.341ZM886.31 291.266H1007.53C1059.97 291.701 1102.8 249.57 1103.24 197.136L1103.29 190.27C1103.73 137.774 1061.5 94.8413 1009.01 94.4057H912.864C860.429 93.9707 817.593 135.304 817.158 187.738L816.812 389.812H886.31V291.266Z" fill="white"/>
<path fill-rule="evenodd" clip-rule="evenodd" d="M1197.54 290.863H1318.38C1370.81 291.298 1413.65 249.168 1414.08 196.734L1414.14 189.868C1414.58 137.372 1372.35 94.4389 1319.85 94.0034H1223.71C1171.28 93.5684 1127.93 134.902 1127.5 187.335L1127.51 295.415C1127.07 347.911 1169.32 388.903 1221.81 389.339H1389.45V322.672H1222.32C1208.5 322.558 1197.39 309.869 1197.51 296.054L1197.54 290.863ZM1198 187.975C1198.12 174.176 1209.39 163.089 1223.19 163.204H1319.33C1333.15 163.318 1344.26 175.414 1344.14 189.229L1344.09 196.095C1343.97 209.893 1332.7 220.711 1318.9 220.596H1197.85L1198 187.975Z" fill="white"/>
<path fill-rule="evenodd" clip-rule="evenodd" d="M498.358 142.001C664.358 53.0014 795.355 90.0179 787.355 142.018L757.468 339.501L750.052 389.001H582.635L639.189 284.001H468.316L339 389.001H106L498.358 142.001ZM632.889 150.493L548.441 219.001H674.055L710.532 150.997L710.5 151C721.5 131 658.5 129 633 150.5L632.889 150.493Z" fill="white"/>
<path d="M805.901 45.7181C808.441 45.7181 810.571 45.2882 812.29 44.4284C814.049 43.5295 815.378 42.2008 816.277 40.4421C817.215 38.6444 817.684 36.3972 817.684 33.7005C817.684 31.1993 817.215 29.0694 816.277 27.3107C815.378 25.552 814.049 24.2233 812.29 23.3244C810.571 22.3864 808.441 21.9174 805.901 21.9174C803.321 21.9174 801.152 22.3864 799.393 23.3244C797.635 24.2233 796.306 25.552 795.407 27.3107C794.547 29.0694 794.117 31.1993 794.117 33.7005C794.117 36.3972 794.547 38.6444 795.407 40.4421C796.306 42.2008 797.635 43.5295 799.393 44.4284C801.152 45.2882 803.321 45.7181 805.901 45.7181Z" fill="#E00000"/>
<path fill-rule="evenodd" clip-rule="evenodd" d="M632 68.5H1225.5L1279 0H837C779.689 0 735.619 20.7435 719.717 28.2284C718.693 28.7102 717.786 29.1371 717 29.5C706.6 34.3 656 57.5 632 68.5ZM805.901 52.6356C801.641 52.6356 797.987 51.893 794.938 50.4079C791.89 48.8837 789.545 46.7147 787.904 43.9008C786.301 41.087 785.5 37.7064 785.5 33.7592C785.5 29.9292 786.301 26.6268 787.904 23.852C789.545 21.0381 791.89 18.8691 794.938 17.3449C797.987 15.7816 801.641 15 805.901 15C810.121 15 813.756 15.7816 816.804 17.3449C819.853 18.8691 822.178 21.0381 823.78 23.852C825.422 26.6268 826.243 29.9292 826.243 33.7592C826.243 37.7064 825.422 41.087 823.78 43.9008C822.178 46.7147 819.853 48.8837 816.804 50.4079C813.756 51.893 810.121 52.6356 805.901 52.6356ZM866.05 15.4688H875.019L895.361 39.0936L895.068 15.4688L903.158 15.4746V51.9905H895.361L874.198 26.9587V51.9905H866.05V15.4688ZM1011.05 22.3862V51.9905H1019.43V22.3862H1035.55V15.4102H995.632V22.3862H1011.05ZM1074.9 15.4688H1083.58V29.5381H1104.68V15.4688H1113.36V51.9905H1104.68V36.2797H1083.58V51.9905H1074.9V15.4688ZM1154.94 15.4102V51.9905H1191.23V45.1903H1163.56V36.3383H1186.71V29.5381H1163.56V22.2104H1191.46V15.4102H1154.94Z" fill="#E00000"/>
<path d="M1305.25 0H1365.73L1312.3 68.5478H1251.82L1305.25 0Z" fill="#E00000"/>
<path d="M1402.02 0H1452.42L1398.99 68.5478H1348.59L1402.02 0Z" fill="#E00000"/>
<path d="M1498.79 0H1539.11L1485.69 68.5478H1445.37L1498.79 0Z" fill="#E00000"/>
<path d="M1595.57 0H1625.81L1572.38 68.5478H1542.14L1595.57 0Z" fill="#E00000"/>
<path d="M1692.34 0H1712.5L1659.07 68.5478H1638.91L1692.34 0Z" fill="#E00000"/>
<path d="M1470.09 221.637L1415.31 95H1491.61L1534.35 193.8C1548.72 227.039 1596 226.63 1609.86 193.148L1650.48 95H1726.22L1674.54 219.87C1668.79 233.749 1660.93 245.528 1651.59 255.204C1658.01 261.884 1663.75 269.556 1668.62 278.22L1730.88 389H1650.61L1607.6 312.477C1592.06 284.828 1552.38 284.501 1536.43 311.89L1491.53 389H1410.5L1475.93 276.63C1480.63 268.56 1486.09 261.379 1492.14 255.085C1483.28 245.854 1475.75 234.706 1470.09 221.637Z" fill="white"/>
<path d="M463.5 163.894L498.358 142L454.049 163.894H463.5Z" fill="#E00000"/>
<path d="M787.357 142L783.952 164.5H787.357V142Z" fill="#E00000"/>
<path d="M775.629 219.5H787.358V189.5H780.169L775.629 219.5Z" fill="#E00000"/>
<path d="M770.332 254.5H787.358V294.5H764.278L770.332 254.5Z" fill="#E00000"/>
<path d="M787.357 389H750.052L757.467 339.5H787.357V389Z" fill="#E00000"/>
<path d="M343.527 218.999H376.767L424.733 188.871H404.5L343.527 218.999Z" fill="#E00000"/>
<path d="M257.562 293.874H192L272 254.344H320.497L257.562 293.874Z" fill="#E00000"/>
<path d="M0 389.001H106.41L185.5 339.088H100.5L0 389.001Z" fill="#E00000"/>
</g>
<defs>
<clipPath id="clip0_3_22">
<rect width="1731" height="390" fill="white"/>
</clipPath>
</defs>
</svg>
